# This file uses centimeters as units for non-parametric coordinates.

mtllib box_nf.mtl
g default
v 1.000000 0.000000 -1.040000
v 1.000000 0.000000 0.990000
v 1.000000 1.990000 0.990000
v 1.000000 1.990000 -1.040000
vn -1.000000 0.000000 0.000000
vn -1.000000 0.000000 0.000000
vn -1.000000 0.000000 0.000000
vn -1.000000 0.000000 0.000000
s off
g rightWall
usemtl rightWall1
f 1//1 2//2 3//3 4//4
g default
v -1.010000 0.000000 0.990000
v -0.990000 0.000000 -1.040000
v -1.020000 1.990000 -1.040000
v -1.020000 1.990000 0.990000
vn 0.999937 0.010050 0.004926
vn 0.999937 0.010050 0.004926
vn 0.999937 0.010050 0.004926
vn 0.999937 0.010050 0.004926
s off
g leftWall
usemtl leftWall1
f 5//5 6//6 7//7 8//8
g default
v -0.990000 0.000000 -1.040000
v 1.000000 0.000000 -1.040000
v 1.000000 1.990000 -1.040000
v -1.020000 1.990000 -1.040000
vn 0.000000 0.000000 1.000000
vn 0.000000 0.000000 1.000000
vn 0.000000 0.000000 1.000000
vn 0.000000 0.000000 1.000000
s off
g backWall
usemtl backWall1
f 9//9 10//10 11//11 12//12
g default
v -1.020000 1.990000 0.990000
v -1.020000 1.990000 -1.040000
v 1.000000 1.990000 -1.040000
v 1.000000 1.990000 0.990000
vn 0.000000 -1.000000 0.000000
vn 0.000000 -1.000000 0.000000
vn 0.000000 -1.000000 0.000000
vn 0.000000 -1.000000 0.000000
s off
g ceiling
usemtl ceiling1
f 13//13 14//14 15//15 16//16
