# This file uses centimeters as units for non-parametric coordinates.

mtllib glossy.mtl
g default
v 0.101610 0.347842 -0.322355
v 0.068311 0.330676 -0.333677
v 0.036434 0.323523 -0.347959
v 0.009098 0.327084 -0.363803
v -0.011021 0.341009 -0.379659
v -0.021952 0.363936 -0.393973
v -0.022626 0.393621 -0.405346
v -0.012978 0.427157 -0.412663
v 0.006049 0.461263 -0.415208
v 0.032592 0.492598 -0.412733
v 0.064052 0.518097 -0.405480
v 0.097351 0.535263 -0.394158
v 0.129229 0.542416 -0.379876
v 0.156565 0.538856 -0.364032
v 0.176683 0.524930 -0.348177
v 0.187615 0.502003 -0.333862
v 0.188289 0.472319 -0.322490
v 0.178641 0.438782 -0.315173
v 0.159614 0.404677 -0.312627
v 0.133071 0.373341 -0.315102
v 0.409652 0.132711 -0.902166
v 0.376354 0.115545 -0.913488
v 0.344476 0.108392 -0.927770
v 0.317140 0.111953 -0.943614
v 0.297022 0.125878 -0.959469
v 0.286090 0.148805 -0.973784
v 0.285416 0.178490 -0.985156
v 0.295064 0.212026 -0.992474
v 0.314091 0.246132 -0.995019
v 0.340634 0.277467 -0.992544
v 0.372095 0.302966 -0.985291
v 0.405394 0.320132 -0.973969
v 0.437271 0.327285 -0.959687
v 0.464607 0.323725 -0.943843
v 0.484725 0.309799 -0.927988
v 0.495657 0.286872 -0.913673
v 0.496331 0.257187 -0.902301
v 0.486683 0.223651 -0.894983
v 0.467656 0.189546 -0.892438
v 0.441113 0.158210 -0.894913
v 0.082831 0.432970 -0.363918
v 0.390874 0.217839 -0.943728
vt 0.648603 0.107966
vt 0.626409 0.064408
vt 0.591842 0.029841
vt 0.548284 0.007647
vt 0.500000 -0.000000
vt 0.451716 0.007647
vt 0.408159 0.029841
vt 0.373591 0.064409
vt 0.351397 0.107966
vt 0.343750 0.156250
vt 0.351397 0.204534
vt 0.373591 0.248091
vt 0.408159 0.282659
vt 0.451716 0.304853
vt 0.500000 0.312500
vt 0.548284 0.304853
vt 0.591841 0.282659
vt 0.626409 0.248091
vt 0.648603 0.204534
vt 0.656250 0.156250
vt 0.375000 0.312500
vt 0.387500 0.312500
vt 0.400000 0.312500
vt 0.412500 0.312500
vt 0.425000 0.312500
vt 0.437500 0.312500
vt 0.450000 0.312500
vt 0.462500 0.312500
vt 0.475000 0.312500
vt 0.487500 0.312500
vt 0.500000 0.312500
vt 0.512500 0.312500
vt 0.525000 0.312500
vt 0.537500 0.312500
vt 0.550000 0.312500
vt 0.562500 0.312500
vt 0.575000 0.312500
vt 0.587500 0.312500
vt 0.600000 0.312500
vt 0.612500 0.312500
vt 0.625000 0.312500
vt 0.375000 0.688440
vt 0.387500 0.688440
vt 0.400000 0.688440
vt 0.412500 0.688440
vt 0.425000 0.688440
vt 0.437500 0.688440
vt 0.450000 0.688440
vt 0.462500 0.688440
vt 0.475000 0.688440
vt 0.487500 0.688440
vt 0.500000 0.688440
vt 0.512500 0.688440
vt 0.525000 0.688440
vt 0.537500 0.688440
vt 0.550000 0.688440
vt 0.562500 0.688440
vt 0.575000 0.688440
vt 0.587500 0.688440
vt 0.600000 0.688440
vt 0.612500 0.688440
vt 0.625000 0.688440
vt 0.648603 0.795466
vt 0.626409 0.751908
vt 0.591842 0.717341
vt 0.548284 0.695147
vt 0.500000 0.687500
vt 0.451716 0.695147
vt 0.408159 0.717341
vt 0.373591 0.751909
vt 0.351397 0.795466
vt 0.343750 0.843750
vt 0.351397 0.892034
vt 0.373591 0.935591
vt 0.408159 0.970159
vt 0.451716 0.992353
vt 0.500000 1.000000
vt 0.548284 0.992353
vt 0.591841 0.970159
vt 0.626409 0.935591
vt 0.648603 0.892034
vt 0.656250 0.843750
vt 0.500000 0.150000
vt 0.500000 0.837500
vn 0.376463 -0.785364 0.491406
vn 0.167765 -0.891862 0.420044
vn 0.167765 -0.891862 0.420044
vn 0.376463 -0.785364 0.491406
vn -0.095679 -0.948752 0.301189
vn -0.095679 -0.948752 0.301189
vn -0.411225 -0.904002 0.116942
vn -0.411225 -0.904002 0.116942
vn -0.709197 -0.694904 -0.118947
vn -0.709197 -0.694904 -0.118947
vn -0.873731 -0.355059 -0.332457
vn -0.873731 -0.355059 -0.332457
vn -0.884886 -0.012052 -0.465651
vn -0.884886 -0.012052 -0.465651
vn -0.807201 0.265313 -0.527291
vn -0.807201 0.265313 -0.527291
vn -0.688957 0.479167 -0.543818
vn -0.688957 0.479167 -0.543818
vn -0.546128 0.648193 -0.530651
vn -0.546128 0.648193 -0.530651
vn -0.376462 0.785364 -0.491406
vn -0.376462 0.785364 -0.491406
vn -0.167765 0.891862 -0.420044
vn -0.167765 0.891862 -0.420044
vn 0.095679 0.948752 -0.301189
vn 0.095679 0.948752 -0.301189
vn 0.411225 0.904002 -0.116942
vn 0.411225 0.904002 -0.116942
vn 0.709197 0.694904 0.118947
vn 0.709197 0.694904 0.118947
vn 0.873731 0.355059 0.332457
vn 0.873731 0.355059 0.332457
vn 0.884886 0.012052 0.465651
vn 0.884886 0.012052 0.465651
vn 0.807201 -0.265312 0.527291
vn 0.807201 -0.265312 0.527291
vn 0.688957 -0.479167 0.543818
vn 0.688957 -0.479167 0.543818
vn 0.546129 -0.648192 0.530651
vn 0.546129 -0.648192 0.530651
vn -0.445852 0.311375 0.839203
vn -0.445852 0.311375 0.839203
vn -0.445852 0.311375 0.839203
vn -0.445852 0.311375 0.839203
vn -0.445852 0.311375 0.839203
vn -0.445852 0.311375 0.839203
vn -0.445852 0.311375 0.839203
vn -0.445852 0.311375 0.839203
vn -0.445852 0.311375 0.839203
vn -0.445852 0.311375 0.839203
vn -0.445852 0.311375 0.839203
vn -0.445852 0.311375 0.839203
vn -0.445852 0.311375 0.839203
vn -0.445852 0.311375 0.839203
vn -0.445852 0.311375 0.839203
vn -0.445852 0.311375 0.839203
vn -0.445852 0.311375 0.839203
vn -0.445852 0.311375 0.839203
vn -0.445852 0.311375 0.839203
vn -0.445852 0.311375 0.839203
vn -0.445853 0.311374 0.839203
vn 0.445852 -0.311375 -0.839203
vn 0.445852 -0.311375 -0.839203
vn 0.445852 -0.311375 -0.839203
vn 0.445852 -0.311375 -0.839203
vn 0.445852 -0.311375 -0.839203
vn 0.445852 -0.311375 -0.839203
vn 0.445852 -0.311375 -0.839203
vn 0.445852 -0.311375 -0.839203
vn 0.445852 -0.311375 -0.839203
vn 0.445852 -0.311375 -0.839203
vn 0.445852 -0.311375 -0.839203
vn 0.445852 -0.311375 -0.839203
vn 0.445852 -0.311375 -0.839203
vn 0.445852 -0.311375 -0.839203
vn 0.445852 -0.311375 -0.839203
vn 0.445852 -0.311375 -0.839203
vn 0.445852 -0.311375 -0.839203
vn 0.445852 -0.311375 -0.839203
vn 0.445853 -0.311374 -0.839203
vn 0.445852 -0.311375 -0.839203
vn 0.445852 -0.311375 -0.839203
s 1
g initialShadingGroup pCylinder1
f 1/21/1 2/22/2 22/43/3 21/42/4
f 2/22/2 3/23/5 23/44/6 22/43/3
f 3/23/5 4/24/7 24/45/8 23/44/6
f 4/24/7 5/25/9 25/46/10 24/45/8
f 5/25/9 6/26/11 26/47/12 25/46/10
f 6/26/11 7/27/13 27/48/14 26/47/12
f 7/27/13 8/28/15 28/49/16 27/48/14
f 8/28/15 9/29/17 29/50/18 28/49/16
f 9/29/17 10/30/19 30/51/20 29/50/18
f 10/30/19 11/31/21 31/52/22 30/51/20
f 11/31/21 12/32/23 32/53/24 31/52/22
f 12/32/23 13/33/25 33/54/26 32/53/24
f 13/33/25 14/34/27 34/55/28 33/54/26
f 14/34/27 15/35/29 35/56/30 34/55/28
f 15/35/29 16/36/31 36/57/32 35/56/30
f 16/36/31 17/37/33 37/58/34 36/57/32
f 17/37/33 18/38/35 38/59/36 37/58/34
f 18/38/35 19/39/37 39/60/38 38/59/36
f 19/39/37 20/40/39 40/61/40 39/60/38
f 20/40/39 1/41/1 21/62/4 40/61/40
s 2
f 2/2/41 1/1/42 41/83/43
f 3/3/44 2/2/41 41/83/43
f 4/4/45 3/3/44 41/83/43
f 5/5/46 4/4/45 41/83/43
f 6/6/47 5/5/46 41/83/43
f 7/7/48 6/6/47 41/83/43
f 8/8/49 7/7/48 41/83/43
f 9/9/50 8/8/49 41/83/43
f 10/10/51 9/9/50 41/83/43
f 11/11/52 10/10/51 41/83/43
f 12/12/53 11/11/52 41/83/43
f 13/13/54 12/12/53 41/83/43
f 14/14/55 13/13/54 41/83/43
f 15/15/56 14/14/55 41/83/43
f 16/16/57 15/15/56 41/83/43
f 17/17/58 16/16/57 41/83/43
f 18/18/59 17/17/58 41/83/43
f 19/19/60 18/18/59 41/83/43
f 20/20/61 19/19/60 41/83/43
f 1/1/42 20/20/61 41/83/43
s 3
f 21/81/62 22/80/63 42/84/64
f 22/80/63 23/79/65 42/84/64
f 23/79/65 24/78/66 42/84/64
f 24/78/66 25/77/67 42/84/64
f 25/77/67 26/76/68 42/84/64
f 26/76/68 27/75/69 42/84/64
f 27/75/69 28/74/70 42/84/64
f 28/74/70 29/73/71 42/84/64
f 29/73/71 30/72/72 42/84/64
f 30/72/72 31/71/73 42/84/64
f 31/71/73 32/70/74 42/84/64
f 32/70/74 33/69/75 42/84/64
f 33/69/75 34/68/76 42/84/64
f 34/68/76 35/67/77 42/84/64
f 35/67/77 36/66/78 42/84/64
f 36/66/78 37/65/79 42/84/64
f 37/65/79 38/64/80 42/84/64
f 38/64/80 39/63/81 42/84/64
f 39/63/81 40/82/82 42/84/64
f 40/82/82 21/81/62 42/84/64
g default
v 0.142625 0.010853 -0.453317
v 0.209899 0.010851 -0.429722
v 0.279331 0.010763 -0.427447
v 0.344124 0.010598 -0.446715
v 0.397936 0.010370 -0.485638
v 0.435499 0.010104 -0.540408
v 0.453136 0.009824 -0.605663
v 0.449122 0.009559 -0.675016
v 0.423849 0.009334 -0.741677
v 0.379790 0.009171 -0.799121
v 0.321259 0.009086 -0.841726
v 0.253985 0.009088 -0.865321
v 0.184554 0.009176 -0.867596
v 0.119761 0.009341 -0.848328
v 0.065949 0.009569 -0.809405
v 0.028386 0.009835 -0.754635
v 0.010748 0.010115 -0.689380
v 0.014762 0.010380 -0.620027
v 0.040036 0.010605 -0.553366
v 0.084094 0.010768 -0.495922
v 0.232805 0.627655 -0.649935
vt 0.737764 0.172746
vt 0.702254 0.103054
vt 0.646946 0.047746
vt 0.577254 0.012236
vt 0.500000 -0.000000
vt 0.422746 0.012236
vt 0.353054 0.047746
vt 0.297746 0.103054
vt 0.262236 0.172746
vt 0.250000 0.250000
vt 0.262236 0.327254
vt 0.297746 0.396946
vt 0.353054 0.452254
vt 0.422746 0.487764
vt 0.500000 0.500000
vt 0.577254 0.487764
vt 0.646946 0.452254
vt 0.702254 0.396946
vt 0.737764 0.327254
vt 0.750000 0.250000
vt 0.250000 0.500000
vt 0.275000 0.500000
vt 0.300000 0.500000
vt 0.325000 0.500000
vt 0.350000 0.500000
vt 0.375000 0.500000
vt 0.400000 0.500000
vt 0.425000 0.500000
vt 0.450000 0.500000
vt 0.475000 0.500000
vt 0.500000 0.500000
vt 0.525000 0.500000
vt 0.550000 0.500000
vt 0.575000 0.500000
vt 0.600000 0.500000
vt 0.625000 0.500000
vt 0.650000 0.500000
vt 0.675000 0.500000
vt 0.700000 0.500000
vt 0.725000 0.500000
vt 0.750000 0.500000
vt 0.500000 1.000000
vn -0.001396 -0.999991 0.003908
vn -0.001396 -0.999991 0.003908
vn -0.001396 -0.999991 0.003908
vn -0.001396 -0.999991 0.003908
vn -0.001396 -0.999991 0.003908
vn -0.001396 -0.999991 0.003908
vn -0.001396 -0.999991 0.003908
vn -0.001396 -0.999991 0.003908
vn -0.001396 -0.999991 0.003908
vn -0.001396 -0.999991 0.003908
vn -0.001396 -0.999991 0.003908
vn -0.001396 -0.999991 0.003908
vn -0.001396 -0.999991 0.003908
vn -0.001396 -0.999991 0.003908
vn -0.001396 -0.999991 0.003908
vn -0.001396 -0.999991 0.003908
vn -0.001396 -0.999991 0.003908
vn -0.001396 -0.999991 0.003908
vn -0.001396 -0.999991 0.003908
vn -0.001396 -0.999991 0.003908
vn -0.439676 0.330500 0.835138
vn -0.174860 0.336809 0.925194
vn 0.001395 0.999991 -0.003904
vn 0.118535 0.344776 0.931171
vn 0.413344 0.351247 0.840102
vn 0.670740 0.353042 0.652280
vn 0.852039 0.348877 0.390275
vn 0.935653 0.340361 0.093317
vn 0.922281 0.330881 -0.199788
vn 0.825583 0.323664 -0.462227
vn 0.660907 0.320726 -0.678481
vn 0.440587 0.322734 -0.837691
vn 0.175789 0.329079 -0.927796
vn -0.117582 0.337818 -0.933838
vn -0.412371 0.345823 -0.842827
vn -0.669759 0.349805 -0.655026
vn -0.851066 0.348193 -0.392999
vn -0.934700 0.342232 -0.095985
vn -0.921351 0.335006 0.197186
vn -0.824671 0.329570 0.459675
vn -0.660002 0.327862 0.675946
s off
g initialShadingGroup pCone1
f 43/85/83 62/104/84 61/103/85 60/102/86 59/101/87 58/100/88 57/99/89 56/98/90 55/97/91 54/96/92 53/95/93 52/94/94 51/93/95 50/92/96 49/91/97 48/90/98 47/89/99 46/88/100 45/87/101 44/86/102
s 1
f 43/105/103 44/106/104 63/126/105
f 44/106/104 45/107/106 63/126/105
f 45/107/106 46/108/107 63/126/105
f 46/108/107 47/109/108 63/126/105
f 47/109/108 48/110/109 63/126/105
f 48/110/109 49/111/110 63/126/105
f 49/111/110 50/112/111 63/126/105
f 50/112/111 51/113/112 63/126/105
f 51/113/112 52/114/113 63/126/105
f 52/114/113 53/115/114 63/126/105
f 53/115/114 54/116/115 63/126/105
f 54/116/115 55/117/116 63/126/105
f 55/117/116 56/118/117 63/126/105
f 56/118/117 57/119/118 63/126/105
f 57/119/118 58/120/119 63/126/105
f 58/120/119 59/121/120 63/126/105
f 59/121/120 60/122/121 63/126/105
f 60/122/121 61/123/122 63/126/105
f 61/123/122 62/124/123 63/126/105
f 62/124/123 43/125/103 63/126/105
